<?xml version="1.0" encoding="UTF-8" standalone="no"?>
<!-- Created with Inkscape (http://www.inkscape.org/) -->

<svg
   xmlns:dc="http://purl.org/dc/elements/1.1/"
   xmlns:cc="http://creativecommons.org/ns#"
   xmlns:rdf="http://www.w3.org/1999/02/22-rdf-syntax-ns#"
   xmlns:svg="http://www.w3.org/2000/svg"
   xmlns="http://www.w3.org/2000/svg"
   xmlns:xlink="http://www.w3.org/1999/xlink"
   xmlns:sodipodi="http://sodipodi.sourceforge.net/DTD/sodipodi-0.dtd"
   xmlns:inkscape="http://www.inkscape.org/namespaces/inkscape"
   width="120"
   height="96"
   viewBox="0 0 31.749999 25.400001"
   version="1.1"
   id="svg32"
   inkscape:version="0.92.4 (5da689c313, 2019-01-14)"
   sodipodi:docname="Bidon.svg"
   inkscape:export-filename="C:\ML\Projekte\CyclingCareer\assets\images\CardClass_Bidon.png"
   inkscape:export-xdpi="96"
   inkscape:export-ydpi="96">
  <defs
     id="defs26">
    <linearGradient
       inkscape:collect="always"
       id="linearGradient906">
      <stop
         style="stop-color:#000000;stop-opacity:1"
         offset="0"
         id="stop902" />
      <stop
         style="stop-color:#000000;stop-opacity:0"
         offset="1"
         id="stop904" />
    </linearGradient>
    <linearGradient
       inkscape:collect="always"
       xlink:href="#linearGradient906"
       id="linearGradient900"
       x1="54.093666"
       y1="20.516352"
       x2="53.916893"
       y2="44.73476"
       gradientUnits="userSpaceOnUse"
       gradientTransform="matrix(0.26458333,0,0,0.26458333,1.0583333,271.59998)" />
  </defs>
  <sodipodi:namedview
     id="base"
     pagecolor="#ffffff"
     bordercolor="#666666"
     borderopacity="1.0"
     inkscape:pageopacity="0.0"
     inkscape:pageshadow="2"
     inkscape:zoom="5.6568543"
     inkscape:cx="34.370127"
     inkscape:cy="56.090807"
     inkscape:document-units="mm"
     inkscape:current-layer="layer1"
     showgrid="false"
     units="px"
     inkscape:window-width="3440"
     inkscape:window-height="1377"
     inkscape:window-x="-8"
     inkscape:window-y="-8"
     inkscape:window-maximized="1" />
  <metadata
     id="metadata29">
    <rdf:RDF>
      <cc:Work
         rdf:about="">
        <dc:format>image/svg+xml</dc:format>
        <dc:type
           rdf:resource="http://purl.org/dc/dcmitype/StillImage" />
        <dc:title />
      </cc:Work>
    </rdf:RDF>
  </metadata>
  <g
     inkscape:label="Ebene 1"
     inkscape:groupmode="layer"
     id="layer1"
     transform="translate(0,-271.59998)">
    <path
       style="fill:#2c89a0;stroke-width:0.29071087"
       d="m 15.465206,273.45826 v 1.56632 a 5.0002426,3.1034923 0 0 0 -4.396631,2.94814 h -0.0057 v 0.0703 a 5.0002426,3.1034923 0 0 0 -0.0047,0.0605 5.0002426,3.1034923 0 0 0 0.0047,0.0837 v 1.5534 a 2.4999999,1.999983 0 0 1 0.7953,1.45934 2.4999999,1.999983 0 0 1 -0.7953,1.46089 v 12.3393 h 9.991638 v -12.34033 a 2.4999999,1.999983 0 0 1 -0.796334,-1.45986 2.4999999,1.999983 0 0 1 0.796334,-1.46089 v -1.5906 a 5.0002426,3.1034923 0 0 0 0.0036,-0.045 5.0002426,3.1034923 0 0 0 -0.0036,-0.0661 v -0.0646 h -0.0036 a 5.0002426,3.1034923 0 0 0 -4.399732,-2.94866 v -1.5658 z"
       id="path36"
       inkscape:connector-curvature="0" />
    <path
       style="fill:url(#linearGradient900);fill-opacity:1;stroke-width:0.26272073"
       d="m 11.066508,279.74367 a 2.4999999,1.999983 0 0 1 0.791683,1.45624 2.4999999,1.999983 0 0 1 -0.780314,1.44952 h 9.96425 a 2.4999999,1.999983 0 0 1 -0.783932,-1.44952 2.4999999,1.999983 0 0 1 0.790133,-1.45624 z"
       id="rect64"
       inkscape:connector-curvature="0" />
    <ellipse
       style="fill:#2c89a0;fill-opacity:1;stroke-width:0.18152873"
       id="path910"
       ry="0.38033849"
       rx="4.9950438"
       cy="294.99905"
       cx="16.057934" />
    <path
       style="fill:#162d50;stroke:#000000;stroke-width:0.29071087;stroke-opacity:0"
       d="m 15.465206,273.45826 v 1.56632 a 5.0002426,3.1034923 0 0 0 -4.396631,2.94814 h -0.0057 v 0.0703 a 5.0002426,3.1034923 0 0 0 -0.0047,0.0605 5.0002426,3.1034923 0 0 0 0.0047,0.0837 v 0.22066 h 9.991638 v -0.25941 a 5.0002426,3.1034923 0 0 0 0.0036,-0.045 5.0002426,3.1034923 0 0 0 -0.0036,-0.0661 v -0.0646 h -0.0036 a 5.0002426,3.1034923 0 0 0 -4.399732,-2.94866 v -1.5658 z"
       id="path5817"
       inkscape:connector-curvature="0" />
    <g
       transform="translate(-28.57477,2.746541e-5)"
       id="g6741"
       style="fill:#00ff00;stroke:#aa0000;stroke-width:2.64583325;stroke-miterlimit:4;stroke-dasharray:none;stroke-opacity:1">
      <path
         inkscape:connector-curvature="0"
         id="path6735"
         d="M 5.4040051,294.77097 26.346056,273.82907"
         style="fill:#00ff00;stroke:#aa0000;stroke-width:2.64583325;stroke-linecap:round;stroke-linejoin:miter;stroke-miterlimit:4;stroke-dasharray:none;stroke-opacity:1" />
      <path
         style="fill:#00ff00;stroke:#aa0000;stroke-width:2.64583325;stroke-linecap:round;stroke-linejoin:miter;stroke-miterlimit:4;stroke-dasharray:none;stroke-opacity:1"
         d="M 26.346056,294.77097 5.4040051,273.82907"
         id="path6737"
         inkscape:connector-curvature="0" />
    </g>
  </g>
</svg>
