<?xml version="1.0" encoding="UTF-8" standalone="no"?>
<!-- Created with Inkscape (http://www.inkscape.org/) -->

<svg
   xmlns:dc="http://purl.org/dc/elements/1.1/"
   xmlns:cc="http://creativecommons.org/ns#"
   xmlns:rdf="http://www.w3.org/1999/02/22-rdf-syntax-ns#"
   xmlns:svg="http://www.w3.org/2000/svg"
   xmlns="http://www.w3.org/2000/svg"
   xmlns:sodipodi="http://sodipodi.sourceforge.net/DTD/sodipodi-0.dtd"
   xmlns:inkscape="http://www.inkscape.org/namespaces/inkscape"
   width="120"
   height="96"
   viewBox="0 0 31.749999 25.400001"
   version="1.1"
   id="svg8"
   inkscape:version="0.92.4 (5da689c313, 2019-01-14)"
   sodipodi:docname="Bike.svg"
   inkscape:export-filename="C:\ML\Projekte\CyclingCareer\assets\images\CardClass_Acceleration.png"
   inkscape:export-xdpi="96"
   inkscape:export-ydpi="96">
  <defs
     id="defs2">
    <inkscape:path-effect
       only_selected="false"
       apply_with_weight="true"
       apply_no_weight="true"
       helper_size="0"
       steps="2"
       weight="33.333333"
       is_visible="true"
       id="path-effect4534"
       effect="bspline" />
    <inkscape:path-effect
       only_selected="false"
       apply_with_weight="true"
       apply_no_weight="true"
       helper_size="0"
       steps="2"
       weight="33.333333"
       is_visible="true"
       id="path-effect4530"
       effect="bspline" />
    <inkscape:path-effect
       effect="bspline"
       id="path-effect830"
       is_visible="true"
       weight="33.333333"
       steps="2"
       helper_size="0"
       apply_no_weight="true"
       apply_with_weight="true"
       only_selected="false" />
  </defs>
  <sodipodi:namedview
     id="base"
     pagecolor="#ffffff"
     bordercolor="#666666"
     borderopacity="1.0"
     inkscape:pageopacity="0.0"
     inkscape:pageshadow="2"
     inkscape:zoom="15.84"
     inkscape:cx="58.760363"
     inkscape:cy="46.799796"
     inkscape:document-units="mm"
     inkscape:current-layer="layer1"
     showgrid="false"
     units="px"
     inkscape:window-width="3000"
     inkscape:window-height="1875"
     inkscape:window-x="-13"
     inkscape:window-y="-13"
     inkscape:window-maximized="1" />
  <metadata
     id="metadata5">
    <rdf:RDF>
      <cc:Work
         rdf:about="">
        <dc:format>image/svg+xml</dc:format>
        <dc:type
           rdf:resource="http://purl.org/dc/dcmitype/StillImage" />
        <dc:title />
      </cc:Work>
    </rdf:RDF>
  </metadata>
  <g
     inkscape:label="Ebene 1"
     inkscape:groupmode="layer"
     id="layer1"
     transform="translate(0,-271.59998)">
    <g
       id="g4668"
       transform="translate(3.7041668)">
      <path
         inkscape:connector-curvature="0"
         id="circle823"
         d="m 18.653122,286.31071 a 4.3656249,4.3656249 0 0 0 -4.365625,4.36562 4.3656249,4.3656249 0 0 0 4.365625,4.36563 4.3656249,4.3656249 0 0 0 4.365625,-4.36563 4.3656249,4.3656249 0 0 0 -4.365625,-4.36562 z m 0,0.95239 a 3.4395833,3.4395833 0 0 1 3.439584,3.43959 3.4395833,3.4395833 0 0 1 -3.439584,3.43958 3.4395833,3.4395833 0 0 1 -3.439583,-3.43958 3.4395833,3.4395833 0 0 1 3.439583,-3.43959 z"
         style="fill:#333333;fill-opacity:1;stroke:none;stroke-width:2.63951302;stroke-linecap:round;stroke-miterlimit:4;stroke-dasharray:none;stroke-opacity:0" />
      <path
         inkscape:connector-curvature="0"
         id="path821"
         d="m 5.8208334,286.31071 a 4.3656249,4.3656249 0 0 0 -4.3656254,4.36562 4.3656249,4.3656249 0 0 0 4.3656254,4.36563 4.3656249,4.3656249 0 0 0 4.3656226,-4.36563 4.3656249,4.3656249 0 0 0 -4.3656226,-4.36562 z m 0,0.92604 a 3.4395833,3.4395833 0 0 1 3.4395812,3.43958 3.4395833,3.4395833 0 0 1 -3.4395812,3.43958 3.4395833,3.4395833 0 0 1 -3.4395837,-3.43958 3.4395833,3.4395833 0 0 1 3.4395837,-3.43958 z"
         style="fill:#333333;fill-opacity:1;stroke:none;stroke-width:2.63951302;stroke-linecap:round;stroke-miterlimit:4;stroke-dasharray:none;stroke-opacity:0" />
      <path
         sodipodi:nodetypes="ccccc"
         inkscape:connector-curvature="0"
         id="rect819"
         d="m 11.121827,290.72317 -5.4377013,0.008 3.7894576,-6.45085 7.7442467,-0.008 z"
         style="fill:none;fill-opacity:1;stroke:#aa4400;stroke-width:0.92269611;stroke-linecap:round;stroke-linejoin:round;stroke-miterlimit:4;stroke-dasharray:none;stroke-opacity:1" />
      <path
         inkscape:path-effect="#path-effect830"
         transform="matrix(0.85422999,0,0,1.0639418,0.18007881,-18.616512)"
         inkscape:original-d="m 12.586864,290.64079 c -0.629915,-2.46344 -1.260094,-4.92662 -1.890538,-7.38953"
         inkscape:connector-curvature="0"
         id="path828"
         d="m 12.586864,290.64079 c -0.630226,-2.46336 -1.260406,-4.92654 -1.890538,-7.38953"
         style="fill:none;stroke:#aa4400;stroke-width:1.05833328;stroke-linecap:round;stroke-linejoin:miter;stroke-miterlimit:4;stroke-dasharray:none;stroke-opacity:1" />
      <path
         inkscape:path-effect="#path-effect4534"
         style="fill:none;stroke:#aa4400;stroke-width:1.05833328;stroke-linecap:round;stroke-linejoin:miter;stroke-miterlimit:4;stroke-dasharray:none;stroke-opacity:1"
         d="m 12.586864,290.64079 c -0.630226,-2.46336 -1.260406,-4.92654 -1.890538,-7.38953"
         id="path4532"
         inkscape:connector-curvature="0"
         inkscape:original-d="m 12.586864,290.64079 c -0.629915,-2.46344 -1.260094,-4.92662 -1.890538,-7.38953"
         transform="matrix(0.85421019,0,0,1.0639434,7.8531965,-18.616977)" />
      <path
         sodipodi:nodetypes="cccccc"
         inkscape:connector-curvature="0"
         id="path4568"
         d="m 11.70781,288.93753 1.870791,-4.61015 -4.3429074,-3.70819 6.9486534,-2.03782 -2.305083,2.67256 3.641362,1.03561"
         style="fill:none;stroke:#ff0054;stroke-width:1.58749998;stroke-linecap:round;stroke-linejoin:round;stroke-miterlimit:4;stroke-dasharray:none;stroke-opacity:1" />
      <ellipse
         transform="matrix(0.69688823,0.71717975,-0.78892261,0.61449257,0,0)"
         ry="1.7591159"
         rx="1.4850039"
         cy="181.18158"
         cx="231.61671"
         id="path4595"
         style="fill:#ffaaaa;fill-rule:evenodd;stroke-width:0.30387726" />
    </g>
    <path
       style="fill:none;stroke:#000000;stroke-width:0.19955544;stroke-linecap:butt;stroke-linejoin:miter;stroke-miterlimit:4;stroke-dasharray:none;stroke-opacity:1"
       d="m 11.641637,279.52329 -5.2916351,0.001"
       id="path4930"
       inkscape:connector-curvature="0" />
    <path
       inkscape:connector-curvature="0"
       id="path4932"
       d="m 11.37706,282.16931 -7.1437249,10e-4"
       style="fill:none;stroke:#000000;stroke-width:0.19989011;stroke-linecap:butt;stroke-linejoin:miter;stroke-miterlimit:4;stroke-dasharray:none;stroke-opacity:1" />
    <path
       style="fill:none;stroke:#000000;stroke-width:0.2;stroke-linecap:butt;stroke-linejoin:miter;stroke-miterlimit:4;stroke-dasharray:none;stroke-opacity:1"
       d="m 11.112499,284.81533 -7.9374973,10e-4"
       id="path4934"
       inkscape:connector-curvature="0" />
    <path
       inkscape:connector-curvature="0"
       id="path4936"
       d="m 17.462503,276.87778 -7.9375007,0.001"
       style="fill:none;stroke:#000000;stroke-width:0.2;stroke-linecap:butt;stroke-linejoin:miter;stroke-miterlimit:4;stroke-dasharray:none;stroke-opacity:1" />
    <path
       inkscape:connector-curvature="0"
       id="path4946"
       d="m 4.4976934,287.4604 -2.9101917,0.003"
       style="fill:none;stroke:#000000;stroke-width:0.19832318;stroke-linecap:butt;stroke-linejoin:miter;stroke-miterlimit:4;stroke-dasharray:none;stroke-opacity:1" />
    <path
       style="fill:none;stroke:#000000;stroke-width:0.19774149;stroke-linecap:butt;stroke-linejoin:miter;stroke-miterlimit:4;stroke-dasharray:none;stroke-opacity:1"
       d="m 3.4395598,290.106 -2.381225,0.003"
       id="path4948"
       inkscape:connector-curvature="0" />
    <path
       inkscape:connector-curvature="0"
       id="path4950"
       d="m 4.2333099,292.75199 -2.6458084,0.003"
       style="fill:none;stroke:#000000;stroke-width:0.19805795;stroke-linecap:butt;stroke-linejoin:miter;stroke-miterlimit:4;stroke-dasharray:none;stroke-opacity:1" />
    <path
       style="fill:#0000ff;fill-rule:evenodd;stroke-width:0.36555937"
       d="M 75.845703 0.5625 L 75.845703 12.185547 L 115.82031 22.75 L 115.82031 11.126953 L 75.845703 0.5625 z "
       transform="matrix(0.26458333,0,0,0.26458333,0,271.59998)"
       id="rect4954" />
  </g>
</svg>
