<?xml version="1.0" encoding="UTF-8" standalone="no"?>
<!-- Created with Inkscape (http://www.inkscape.org/) -->

<svg
   xmlns:dc="http://purl.org/dc/elements/1.1/"
   xmlns:cc="http://creativecommons.org/ns#"
   xmlns:rdf="http://www.w3.org/1999/02/22-rdf-syntax-ns#"
   xmlns:svg="http://www.w3.org/2000/svg"
   xmlns="http://www.w3.org/2000/svg"
   xmlns:xlink="http://www.w3.org/1999/xlink"
   xmlns:sodipodi="http://sodipodi.sourceforge.net/DTD/sodipodi-0.dtd"
   xmlns:inkscape="http://www.inkscape.org/namespaces/inkscape"
   width="120"
   height="96"
   viewBox="0 0 31.749999 25.400001"
   version="1.1"
   id="svg8"
   inkscape:version="0.92.4 (5da689c313, 2019-01-14)"
   sodipodi:docname="EnergyGel.svg"
   inkscape:export-filename="C:\ML\Projekte\CyclingCareer\assets\images\CardClass_EnergyGel.png"
   inkscape:export-xdpi="96"
   inkscape:export-ydpi="96">
  <defs
     id="defs2">
    <linearGradient
       inkscape:collect="always"
       id="linearGradient963">
      <stop
         style="stop-color:#000000;stop-opacity:0"
         offset="0"
         id="stop959" />
      <stop
         style="stop-color:#000000;stop-opacity:0.36078432"
         offset="1"
         id="stop961" />
    </linearGradient>
    <radialGradient
       inkscape:collect="always"
       xlink:href="#linearGradient963"
       id="radialGradient965"
       cx="13.325901"
       cy="284.11261"
       fx="13.325901"
       fy="284.11261"
       r="11.264478"
       gradientTransform="matrix(-0.00594781,-0.41717578,0.95111538,-0.01358745,-256.02498,293.64913)"
       gradientUnits="userSpaceOnUse" />
  </defs>
  <sodipodi:namedview
     id="base"
     pagecolor="#ffffff"
     bordercolor="#666666"
     borderopacity="1.0"
     inkscape:pageopacity="0.0"
     inkscape:pageshadow="2"
     inkscape:zoom="7.919596"
     inkscape:cx="6.586515"
     inkscape:cy="40.245538"
     inkscape:document-units="mm"
     inkscape:current-layer="layer1"
     showgrid="false"
     units="px"
     inkscape:window-width="3440"
     inkscape:window-height="1377"
     inkscape:window-x="-8"
     inkscape:window-y="-8"
     inkscape:window-maximized="1"
     inkscape:snap-nodes="true" />
  <metadata
     id="metadata5">
    <rdf:RDF>
      <cc:Work
         rdf:about="">
        <dc:format>image/svg+xml</dc:format>
        <dc:type
           rdf:resource="http://purl.org/dc/dcmitype/StillImage" />
        <dc:title />
      </cc:Work>
    </rdf:RDF>
  </metadata>
  <g
     inkscape:label="Ebene 1"
     inkscape:groupmode="layer"
     id="layer1"
     transform="translate(0,-271.59998)">
    <path
       style="fill:#00d663;fill-opacity:1;stroke:none;stroke-width:1.2465657;stroke-linecap:round;stroke-miterlimit:4;stroke-dasharray:none;stroke-opacity:0"
       d="m 3.4395833,279.53748 v 9.525 H 21.960416 l 3.704167,-1.85208 v 1.05833 l 2.645833,-0.79375 v -6.35 l -2.645833,-0.79375 v 1.05833 l -3.704167,-1.85208 z"
       id="rect815"
       inkscape:connector-curvature="0" />
    <path
       style="fill:#ffff00;fill-opacity:1;stroke:none;stroke-width:0.3126553px;stroke-linecap:butt;stroke-linejoin:miter;stroke-opacity:1"
       d="m 14.47799,280.84021 -2.867436,3.3328 3.41768,-0.54887 -3.14331,3.3687 0.213082,-0.96658 -0.736392,1.54308 1.558599,-0.56917 -0.962501,0.0705 4.404711,-3.66598 -3.877996,0.0404 3.216094,-2.60964 z"
       id="path968"
       inkscape:connector-curvature="0"
       sodipodi:nodetypes="cccccccccccc" />
    <path
       style="fill:url(#radialGradient965);fill-opacity:1;stroke:none;stroke-width:1.05376196;stroke-linecap:round;stroke-miterlimit:4;stroke-dasharray:none;stroke-opacity:0"
       d="m 13.132532,280.06665 c -2.729397,-0.003 -5.4801862,0.17318 -8.2568608,0.54002 -0.1215726,0.0161 -0.2268336,0.14304 -0.2599324,0.262 -0.2896852,1.04119 -0.429373,2.23145 -0.4237467,3.43131 0.00545,1.16235 0.1472274,2.33406 0.4237467,3.38791 0.03134,0.11944 0.1385834,0.2443 0.2599324,0.262 3.2900343,0.47983 6.7450188,0.66791 10.2055788,0.54829 2.069723,-0.0715 4.14149,-0.25311 6.181018,-0.54829 0.191901,-0.0278 0.611531,-0.16583 0.780314,-0.262 1.51934,-0.86567 3.251933,-2.21214 4.421435,-2.8267 0.164646,-0.0865 0.249425,-0.32208 0.256315,-0.56121 0.0074,-0.25727 -0.07565,-0.5187 -0.256315,-0.60461 -1.153081,-0.54832 -2.902095,-1.96103 -4.421435,-2.8267 -0.168783,-0.0962 -0.588065,-0.23679 -0.780314,-0.262 -2.050149,-0.26881 -4.10979,-0.43884 -6.181018,-0.50643 -0.648408,-0.0212 -1.297983,-0.0328 -1.948718,-0.0336 z"
       id="path910"
       inkscape:connector-curvature="0" />
  </g>
</svg>
