<?xml version="1.0" encoding="UTF-8" standalone="no"?>
<!-- Created with Inkscape (http://www.inkscape.org/) -->

<svg
   xmlns:dc="http://purl.org/dc/elements/1.1/"
   xmlns:cc="http://creativecommons.org/ns#"
   xmlns:rdf="http://www.w3.org/1999/02/22-rdf-syntax-ns#"
   xmlns:svg="http://www.w3.org/2000/svg"
   xmlns="http://www.w3.org/2000/svg"
   xmlns:sodipodi="http://sodipodi.sourceforge.net/DTD/sodipodi-0.dtd"
   xmlns:inkscape="http://www.inkscape.org/namespaces/inkscape"
   width="120"
   height="96"
   viewBox="0 0 31.749999 25.400001"
   version="1.1"
   id="svg8"
   inkscape:version="0.92.4 (5da689c313, 2019-01-14)"
   sodipodi:docname="TeamMates.svg"
   inkscape:export-filename="C:\ML\Projekte\CyclingCareer\assets\images\CardClass_TeamMate.png"
   inkscape:export-xdpi="96"
   inkscape:export-ydpi="96">
  <defs
     id="defs2">
    <inkscape:path-effect
       only_selected="false"
       apply_with_weight="true"
       apply_no_weight="true"
       helper_size="0"
       steps="2"
       weight="33.333333"
       is_visible="true"
       id="path-effect4534"
       effect="bspline" />
    <inkscape:path-effect
       only_selected="false"
       apply_with_weight="true"
       apply_no_weight="true"
       helper_size="0"
       steps="2"
       weight="33.333333"
       is_visible="true"
       id="path-effect4530"
       effect="bspline" />
    <inkscape:path-effect
       effect="bspline"
       id="path-effect830"
       is_visible="true"
       weight="33.333333"
       steps="2"
       helper_size="0"
       apply_no_weight="true"
       apply_with_weight="true"
       only_selected="false" />
  </defs>
  <sodipodi:namedview
     id="base"
     pagecolor="#ffffff"
     bordercolor="#666666"
     borderopacity="1.0"
     inkscape:pageopacity="0.0"
     inkscape:pageshadow="2"
     inkscape:zoom="15.84"
     inkscape:cx="58.760363"
     inkscape:cy="46.799796"
     inkscape:document-units="mm"
     inkscape:current-layer="layer1"
     showgrid="false"
     units="px"
     inkscape:window-width="3000"
     inkscape:window-height="1875"
     inkscape:window-x="-13"
     inkscape:window-y="-13"
     inkscape:window-maximized="1" />
  <metadata
     id="metadata5">
    <rdf:RDF>
      <cc:Work
         rdf:about="">
        <dc:format>image/svg+xml</dc:format>
        <dc:type
           rdf:resource="http://purl.org/dc/dcmitype/StillImage" />
        <dc:title></dc:title>
      </cc:Work>
    </rdf:RDF>
  </metadata>
  <g
     inkscape:label="Ebene 1"
     inkscape:groupmode="layer"
     id="layer1"
     transform="translate(0,-271.59998)">
    <g
       id="g4604"
       transform="matrix(0.74116436,0,0,0.74116436,11.649505,72.77382)">
      <path
         id="circle823"
         transform="matrix(0.26458333,0,0,0.26458333,0,271.59998)"
         d="m 82.5,57.599609 a 16.5,16.5 0 0 0 -16.5,16.5 16.5,16.5 0 0 0 16.5,16.5 16.5,16.5 0 0 0 16.5,-16.5 16.5,16.5 0 0 0 -16.5,-16.5 z m 0,3.59961 a 13,13 0 0 1 13,13 13,13 0 0 1 -13,13 13,13 0 0 1 -13,-13 13,13 0 0 1 13,-13 z"
         style="fill:#333333;fill-opacity:1;stroke:none;stroke-width:9.97611237;stroke-linecap:round;stroke-miterlimit:4;stroke-dasharray:none;stroke-opacity:0"
         inkscape:connector-curvature="0" />
      <path
         id="path821"
         transform="matrix(0.26458333,0,0,0.26458333,0,271.59998)"
         d="m 34,57.599609 a 16.5,16.5 0 0 0 -16.5,16.5 16.5,16.5 0 0 0 16.5,16.5 16.5,16.5 0 0 0 16.5,-16.5 16.5,16.5 0 0 0 -16.5,-16.5 z m 0,3.5 a 13,13 0 0 1 13,13 13,13 0 0 1 -13,13 13,13 0 0 1 -13,-13 13,13 0 0 1 13,-13 z"
         style="fill:#333333;fill-opacity:1;stroke:none;stroke-width:9.97611237;stroke-linecap:round;stroke-miterlimit:4;stroke-dasharray:none;stroke-opacity:0"
         inkscape:connector-curvature="0" />
      <path
         sodipodi:nodetypes="ccccc"
         inkscape:connector-curvature="0"
         id="rect819"
         d="m 14.296829,291.25234 -5.4377026,0.008 3.7894586,-6.45085 7.744247,-0.008 z"
         style="fill:none;fill-opacity:1;stroke:#aa4400;stroke-width:0.92269611;stroke-linecap:round;stroke-linejoin:round;stroke-miterlimit:4;stroke-dasharray:none;stroke-opacity:1" />
      <path
         inkscape:path-effect="#path-effect830"
         transform="matrix(0.85422999,0,0,1.0639418,3.3550789,-18.087345)"
         inkscape:original-d="m 12.586864,290.64079 c -0.629915,-2.46344 -1.260094,-4.92662 -1.890538,-7.38953"
         inkscape:connector-curvature="0"
         id="path828"
         d="m 12.586864,290.64079 c -0.630226,-2.46336 -1.260406,-4.92654 -1.890538,-7.38953"
         style="fill:none;stroke:#aa4400;stroke-width:1.05833328;stroke-linecap:round;stroke-linejoin:miter;stroke-miterlimit:4;stroke-dasharray:none;stroke-opacity:1" />
      <path
         inkscape:path-effect="#path-effect4534"
         style="fill:none;stroke:#aa4400;stroke-width:1.05833328;stroke-linecap:round;stroke-linejoin:miter;stroke-miterlimit:4;stroke-dasharray:none;stroke-opacity:1"
         d="m 12.586864,290.64079 c -0.630226,-2.46336 -1.260406,-4.92654 -1.890538,-7.38953"
         id="path4532"
         inkscape:connector-curvature="0"
         inkscape:original-d="m 12.586864,290.64079 c -0.629915,-2.46344 -1.260094,-4.92662 -1.890538,-7.38953"
         transform="matrix(0.85421019,0,0,1.0639434,11.028197,-18.08781)" />
      <path
         sodipodi:nodetypes="cccccc"
         inkscape:connector-curvature="0"
         id="path4568"
         d="m 14.882812,289.4667 2.572338,-4.07564 -5.144676,-2.57235 6.781619,-4.54334 -2.037827,3.50773 3.641362,1.03561"
         style="fill:none;stroke:#8a00ff;stroke-width:1.58749998;stroke-linecap:round;stroke-linejoin:round;stroke-miterlimit:4;stroke-dasharray:none;stroke-opacity:1" />
      <ellipse
         transform="matrix(0.69688823,0.71717975,-0.78892261,0.61449257,0,0)"
         ry="1.7591159"
         rx="1.4850039"
         cy="178.71474"
         cx="232.32544"
         id="path4595"
         style="fill:#ffaaaa;fill-rule:evenodd;stroke-width:0.30387726" />
    </g>
    <g
       transform="matrix(0.74116436,0,0,0.74116436,-2.6379954,68.408195)"
       id="g4620">
      <path
         inkscape:connector-curvature="0"
         style="fill:#333333;fill-opacity:1;stroke:none;stroke-width:9.97611237;stroke-linecap:round;stroke-miterlimit:4;stroke-dasharray:none;stroke-opacity:0"
         d="m 82.5,57.599609 a 16.5,16.5 0 0 0 -16.5,16.5 16.5,16.5 0 0 0 16.5,16.5 16.5,16.5 0 0 0 16.5,-16.5 16.5,16.5 0 0 0 -16.5,-16.5 z m 0,3.59961 a 13,13 0 0 1 13,13 13,13 0 0 1 -13,13 13,13 0 0 1 -13,-13 13,13 0 0 1 13,-13 z"
         transform="matrix(0.26458333,0,0,0.26458333,0,271.59998)"
         id="path4606" />
      <path
         inkscape:connector-curvature="0"
         style="fill:#333333;fill-opacity:1;stroke:none;stroke-width:9.97611237;stroke-linecap:round;stroke-miterlimit:4;stroke-dasharray:none;stroke-opacity:0"
         d="m 34,57.599609 a 16.5,16.5 0 0 0 -16.5,16.5 16.5,16.5 0 0 0 16.5,16.5 16.5,16.5 0 0 0 16.5,-16.5 16.5,16.5 0 0 0 -16.5,-16.5 z m 0,3.5 a 13,13 0 0 1 13,13 13,13 0 0 1 -13,13 13,13 0 0 1 -13,-13 13,13 0 0 1 13,-13 z"
         transform="matrix(0.26458333,0,0,0.26458333,0,271.59998)"
         id="path4608" />
      <path
         style="fill:none;fill-opacity:1;stroke:#aa4400;stroke-width:0.92269611;stroke-linecap:round;stroke-linejoin:round;stroke-miterlimit:4;stroke-dasharray:none;stroke-opacity:1"
         d="m 14.296829,291.25234 -5.4377026,0.008 3.7894586,-6.45085 7.744247,-0.008 z"
         id="path4610"
         inkscape:connector-curvature="0"
         sodipodi:nodetypes="ccccc" />
      <path
         style="fill:none;stroke:#aa4400;stroke-width:1.05833328;stroke-linecap:round;stroke-linejoin:miter;stroke-miterlimit:4;stroke-dasharray:none;stroke-opacity:1"
         d="m 12.586864,290.64079 c -0.630226,-2.46336 -1.260406,-4.92654 -1.890538,-7.38953"
         id="path4612"
         inkscape:connector-curvature="0"
         inkscape:original-d="m 12.586864,290.64079 c -0.629915,-2.46344 -1.260094,-4.92662 -1.890538,-7.38953"
         transform="matrix(0.85422999,0,0,1.0639418,3.3550789,-18.087345)"
         inkscape:path-effect="#path-effect830" />
      <path
         transform="matrix(0.85421019,0,0,1.0639434,11.028197,-18.08781)"
         inkscape:original-d="m 12.586864,290.64079 c -0.629915,-2.46344 -1.260094,-4.92662 -1.890538,-7.38953"
         inkscape:connector-curvature="0"
         id="path4614"
         d="m 12.586864,290.64079 c -0.630226,-2.46336 -1.260406,-4.92654 -1.890538,-7.38953"
         style="fill:none;stroke:#aa4400;stroke-width:1.05833328;stroke-linecap:round;stroke-linejoin:miter;stroke-miterlimit:4;stroke-dasharray:none;stroke-opacity:1"
         inkscape:path-effect="#path-effect4534" />
      <path
         style="fill:none;stroke:#8a00ff;stroke-width:1.58749998;stroke-linecap:round;stroke-linejoin:round;stroke-miterlimit:4;stroke-dasharray:none;stroke-opacity:1"
         d="m 14.882812,289.4667 2.572338,-4.07564 -5.144676,-2.57235 6.781619,-4.54334 -2.037827,3.50773 3.641362,1.03561"
         id="path4616"
         inkscape:connector-curvature="0"
         sodipodi:nodetypes="cccccc" />
      <ellipse
         style="fill:#ffaaaa;fill-rule:evenodd;stroke-width:0.30387726"
         id="ellipse4618"
         cx="232.32544"
         cy="178.71474"
         rx="1.4850039"
         ry="1.7591159"
         transform="matrix(0.69688823,0.71717975,-0.78892261,0.61449257,0,0)" />
    </g>
    <g
       id="g4636"
       transform="matrix(0.74115841,0,0,0.7411882,-2.6379678,77.132399)">
      <path
         id="path4622"
         transform="matrix(0.26458333,0,0,0.26458333,0,271.59998)"
         d="m 82.5,57.599609 a 16.5,16.5 0 0 0 -16.5,16.5 16.5,16.5 0 0 0 16.5,16.5 16.5,16.5 0 0 0 16.5,-16.5 16.5,16.5 0 0 0 -16.5,-16.5 z m 0,3.59961 a 13,13 0 0 1 13,13 13,13 0 0 1 -13,13 13,13 0 0 1 -13,-13 13,13 0 0 1 13,-13 z"
         style="fill:#333333;fill-opacity:1;stroke:none;stroke-width:9.97611237;stroke-linecap:round;stroke-miterlimit:4;stroke-dasharray:none;stroke-opacity:0"
         inkscape:connector-curvature="0" />
      <path
         id="path4624"
         transform="matrix(0.26458333,0,0,0.26458333,0,271.59998)"
         d="m 34,57.599609 a 16.5,16.5 0 0 0 -16.5,16.5 16.5,16.5 0 0 0 16.5,16.5 16.5,16.5 0 0 0 16.5,-16.5 16.5,16.5 0 0 0 -16.5,-16.5 z m 0,3.5 a 13,13 0 0 1 13,13 13,13 0 0 1 -13,13 13,13 0 0 1 -13,-13 13,13 0 0 1 13,-13 z"
         style="fill:#333333;fill-opacity:1;stroke:none;stroke-width:9.97611237;stroke-linecap:round;stroke-miterlimit:4;stroke-dasharray:none;stroke-opacity:0"
         inkscape:connector-curvature="0" />
      <path
         sodipodi:nodetypes="ccccc"
         inkscape:connector-curvature="0"
         id="path4626"
         d="m 14.296829,291.25234 -5.4377026,0.008 3.7894586,-6.45085 7.744247,-0.008 z"
         style="fill:none;fill-opacity:1;stroke:#aa4400;stroke-width:0.92269611;stroke-linecap:round;stroke-linejoin:round;stroke-miterlimit:4;stroke-dasharray:none;stroke-opacity:1" />
      <path
         inkscape:path-effect="#path-effect830"
         transform="matrix(0.85422999,0,0,1.0639418,3.3550789,-18.087345)"
         inkscape:original-d="m 12.586864,290.64079 c -0.629915,-2.46344 -1.260094,-4.92662 -1.890538,-7.38953"
         inkscape:connector-curvature="0"
         id="path4628"
         d="m 12.586864,290.64079 c -0.630226,-2.46336 -1.260406,-4.92654 -1.890538,-7.38953"
         style="fill:none;stroke:#aa4400;stroke-width:1.05833328;stroke-linecap:round;stroke-linejoin:miter;stroke-miterlimit:4;stroke-dasharray:none;stroke-opacity:1" />
      <path
         inkscape:path-effect="#path-effect4534"
         style="fill:none;stroke:#aa4400;stroke-width:1.05833328;stroke-linecap:round;stroke-linejoin:miter;stroke-miterlimit:4;stroke-dasharray:none;stroke-opacity:1"
         d="m 12.586864,290.64079 c -0.630226,-2.46336 -1.260406,-4.92654 -1.890538,-7.38953"
         id="path4630"
         inkscape:connector-curvature="0"
         inkscape:original-d="m 12.586864,290.64079 c -0.629915,-2.46344 -1.260094,-4.92662 -1.890538,-7.38953"
         transform="matrix(0.85421019,0,0,1.0639434,11.028197,-18.08781)" />
      <path
         sodipodi:nodetypes="cccccc"
         inkscape:connector-curvature="0"
         id="path4632"
         d="m 14.882812,289.4667 2.572338,-4.07564 -5.144676,-2.57235 6.781619,-4.54334 -2.037827,3.50773 3.641362,1.03561"
         style="fill:none;stroke:#8a00ff;stroke-width:1.58749998;stroke-linecap:round;stroke-linejoin:round;stroke-miterlimit:4;stroke-dasharray:none;stroke-opacity:1" />
      <ellipse
         transform="matrix(0.69688823,0.71717975,-0.78892261,0.61449257,0,0)"
         ry="1.7591159"
         rx="1.4850039"
         cy="178.71474"
         cx="232.32544"
         id="ellipse4634"
         style="fill:#ffaaaa;fill-rule:evenodd;stroke-width:0.30387726" />
    </g>
  </g>
</svg>
