<?xml version="1.0" encoding="UTF-8" standalone="no"?>
<!-- Created with Inkscape (http://www.inkscape.org/) -->

<svg
   xmlns:dc="http://purl.org/dc/elements/1.1/"
   xmlns:cc="http://creativecommons.org/ns#"
   xmlns:rdf="http://www.w3.org/1999/02/22-rdf-syntax-ns#"
   xmlns:svg="http://www.w3.org/2000/svg"
   xmlns="http://www.w3.org/2000/svg"
   xmlns:xlink="http://www.w3.org/1999/xlink"
   xmlns:sodipodi="http://sodipodi.sourceforge.net/DTD/sodipodi-0.dtd"
   xmlns:inkscape="http://www.inkscape.org/namespaces/inkscape"
   width="120"
   height="96"
   viewBox="0 0 31.749999 25.400001"
   version="1.1"
   id="svg8"
   inkscape:version="0.92.4 (5da689c313, 2019-01-14)"
   sodipodi:docname="Temperature2.svg"
   inkscape:export-filename="C:\ML\Projekte\CyclingCareer\assets\images\CardClass_Cold.png"
   inkscape:export-xdpi="97.432701"
   inkscape:export-ydpi="97.432701">
  <defs
     id="defs2">
    <linearGradient
       inkscape:collect="always"
       id="linearGradient4598">
      <stop
         style="stop-color:#000000;stop-opacity:0.75294119"
         offset="0"
         id="stop4594" />
      <stop
         style="stop-color:#000000;stop-opacity:0"
         offset="1"
         id="stop4596" />
    </linearGradient>
    <linearGradient
       inkscape:collect="always"
       id="linearGradient4590">
      <stop
         style="stop-color:#000000;stop-opacity:0"
         offset="0"
         id="stop4586" />
      <stop
         style="stop-color:#000000;stop-opacity:0.627451"
         offset="1"
         id="stop4588" />
    </linearGradient>
    <linearGradient
       inkscape:collect="always"
       id="linearGradient4551">
      <stop
         style="stop-color:#000000;stop-opacity:0.627451"
         offset="0"
         id="stop4547" />
      <stop
         style="stop-color:#000000;stop-opacity:0;"
         offset="1"
         id="stop4549" />
    </linearGradient>
    <linearGradient
       inkscape:collect="always"
       xlink:href="#linearGradient4551"
       id="linearGradient4553"
       x1="20.626526"
       y1="281.5184"
       x2="11.693042"
       y2="281.54178"
       gradientUnits="userSpaceOnUse"
       gradientTransform="translate(-3.3666667e-7,5.921732e-6)" />
    <linearGradient
       inkscape:collect="always"
       xlink:href="#linearGradient4590"
       id="linearGradient4592"
       x1="78.842407"
       y1="40.138565"
       x2="104.38664"
       y2="39.785011"
       gradientUnits="userSpaceOnUse" />
    <linearGradient
       inkscape:collect="always"
       xlink:href="#linearGradient4598"
       id="linearGradient4600"
       x1="29.279375"
       y1="290.19464"
       x2="20.556366"
       y2="288.76807"
       gradientUnits="userSpaceOnUse" />
  </defs>
  <sodipodi:namedview
     id="base"
     pagecolor="#ffffff"
     bordercolor="#666666"
     borderopacity="1.0"
     inkscape:pageopacity="0.0"
     inkscape:pageshadow="2"
     inkscape:zoom="11.313709"
     inkscape:cx="58.945309"
     inkscape:cy="47.520611"
     inkscape:document-units="mm"
     inkscape:current-layer="layer1"
     showgrid="false"
     units="px"
     inkscape:window-width="3440"
     inkscape:window-height="1377"
     inkscape:window-x="-8"
     inkscape:window-y="-8"
     inkscape:window-maximized="1" />
  <metadata
     id="metadata5">
    <rdf:RDF>
      <cc:Work
         rdf:about="">
        <dc:format>image/svg+xml</dc:format>
        <dc:type
           rdf:resource="http://purl.org/dc/dcmitype/StillImage" />
        <dc:title></dc:title>
      </cc:Work>
    </rdf:RDF>
  </metadata>
  <g
     inkscape:label="Ebene 1"
     inkscape:groupmode="layer"
     id="layer1"
     transform="translate(0,-271.59998)">
    <path
       style="fill:#d7e3f4;fill-opacity:1;stroke:none;stroke-width:1.0077486;stroke-miterlimit:4;stroke-dasharray:none"
       d="M 60.480469 11.068359 A 11.308974 1.8332809 0 0 0 49.185547 12.849609 L 49.134766 12.849609 L 49.134766 63.341797 A 15.11811 15.11811 0 0 0 45.353516 73.322266 A 15.11811 15.11811 0 0 0 60.472656 88.441406 A 15.11811 15.11811 0 0 0 75.589844 73.322266 A 15.11811 15.11811 0 0 0 71.810547 63.351562 L 71.810547 12.849609 L 71.777344 12.849609 A 11.308974 1.8332809 0 0 0 60.480469 11.068359 z M 51.785156 14.072266 A 11.308974 1.8332809 0 0 0 60.480469 14.734375 A 11.308974 1.8332809 0 0 0 69.160156 14.076172 L 69.160156 15.185547 L 69.160156 24.076172 L 69.160156 53.363281 L 69.160156 60.960938 L 69.160156 64.572266 A 12.479087 12.213921 0 0 1 72.951172 73.322266 A 12.479087 12.213921 0 0 1 60.472656 85.537109 A 12.479087 12.213921 0 0 1 47.994141 73.322266 A 12.479087 12.213921 0 0 1 51.785156 64.554688 L 51.785156 60.972656 L 51.785156 53.363281 L 51.785156 24.072266 L 51.785156 15.185547 L 51.785156 14.072266 z "
       id="path819"
       transform="matrix(0.26458333,0,0,0.26458333,0,271.59998)" />
    <ellipse
       cy="290.99997"
       cx="16"
       id="circle823"
       style="fill:#0044aa;fill-opacity:1;stroke:none;stroke-width:0.21773896;stroke-miterlimit:4;stroke-dasharray:none"
       rx="3.3017585"
       ry="3.2316" />
    <path
       style="fill:#0044aa;fill-opacity:1;stroke:none;stroke-width:1.154585;stroke-miterlimit:4;stroke-dasharray:none"
       d="M 51.785156 48.072266 L 51.785156 65.859375 L 69.160156 65.859375 L 69.160156 48.076172 A 11.308974 1.8332809 0 0 1 60.480469 48.734375 A 11.308974 1.8332809 0 0 1 51.785156 48.072266 z "
       transform="matrix(0.26458333,0,0,0.26458333,0,271.59998)"
       id="rect825" />
    <path
       style="fill:url(#linearGradient4553);fill-opacity:1;stroke:#000000;stroke-width:0.33538091;stroke-miterlimit:4;stroke-dasharray:none;stroke-opacity:0"
       d="m 16.002118,274.52848 a 2.992166,0.48505557 0 0 0 -2.988448,0.47129 h -0.01344 v 13.35939 a 3.9999999,3.9999999 0 0 0 -1.000455,2.64067 3.9999999,3.9999999 0 0 0 4.000272,4.00027 3.9999999,3.9999999 0 0 0 3.999755,-4.00027 3.9999999,3.9999999 0 0 0 -0.999937,-2.63808 v -13.36198 h -0.0088 a 2.992166,0.48505557 0 0 0 -2.988964,-0.47129 z m -2.300635,0.79479 a 2.992166,0.48505557 0 0 0 2.300635,0.17518 2.992166,0.48505557 0 0 0 2.296502,-0.17415 v 0.29352 2.35231 7.74888 2.01022 0.9555 a 3.3017584,3.2315999 0 0 1 1.003038,2.3151 3.3017584,3.2315999 0 0 1 -3.301607,3.23184 3.3017584,3.2315999 0 0 1 -3.301607,-3.23184 3.3017584,3.2315999 0 0 1 1.003039,-2.31976 v -0.94774 -2.01332 -7.74991 -2.35128 z"
       id="rect4540"
       inkscape:connector-curvature="0" />
    <g
       id="g4605"
       transform="translate(-7.9375004)">
      <ellipse
         cy="290.99997"
         cx="23.937508"
         id="ellipse4569"
         style="fill:url(#linearGradient4600);fill-opacity:1;stroke:none;stroke-width:0.21773896;stroke-miterlimit:4;stroke-dasharray:none"
         rx="3.3017585"
         ry="3.2316" />
      <path
         id="path4571"
         transform="matrix(0.26458333,0,0,0.26458333,0,271.59998)"
         d="m 81.785156,14.056641 v 50.498047 a 12.479087,12.213921 0 0 1 8.6875,-3.445313 12.479087,12.213921 0 0 1 8.6875,3.462891 V 14.060547 a 11.308974,2.0959848 0 0 1 -8.679687,0.753906 11.308974,2.0959848 0 0 1 -8.695313,-0.757812 z"
         style="fill:url(#linearGradient4592);fill-opacity:1;stroke:none;stroke-width:1.23454082;stroke-miterlimit:4;stroke-dasharray:none"
         inkscape:connector-curvature="0" />
    </g>
  </g>
</svg>
